<svg xmlns="http://www.w3.org/2000/svg" width="200" height="200" viewBox="0 0 200 200">
  <rect width="200" height="200" fill="#e5e7eb"/>
  <g fill="#9ca3af">
    <circle cx="100" cy="80" r="30"/>
    <path d="M100 120c-30 0-55 15-55 35v15h110v-15c0-20-25-35-55-35z"/>
    <path d="M60 70c-5-3-12-1-15 4s-1 12 4 15M140 70c5-3 12-1 15 4s1 12-4 15" stroke="#9ca3af" stroke-width="3" fill="none" stroke-linecap="round"/>
    <path d="M50 55c-8-5-18-2-23 6s-2 18 6 23M150 55c8-5 18-2 23 6s2 18-6 23" stroke="#9ca3af" stroke-width="3" fill="none" stroke-linecap="round"/>
  </g>
</svg>
